
<svg contentScriptType="text/ecmascript" width="24"
     xmlns:xlink="http://www.w3.org/1999/xlink" zoomAndPan="magnify"
     contentStyleType="text/css" viewBox="0 0 24 24" height="24"
     preserveAspectRatio="xMidYMid meet" xmlns="http://www.w3.org/2000/svg"
     version="1.0">
    <path fill="#FF9900"
          d="M12 0c-6.617 0-12 5.383-12 12 0 3.18 1.232 6.177 3.469 8.438v.001c2.274 2.296 5.303 3.561 8.531 3.561 3.234 0 6.268-1.27 8.542-3.573 2.23-2.261 3.458-5.253 3.458-8.427 0-6.617-5.383-12-12-12zm8.095 19.428c-1.055-.626-2.64-1.202-4.32-1.81l-1.275-.465v-1.848c.501-.309 1.384-1.107 1.49-2.935.386-.227.63-.728.63-1.37 0-.578-.197-1.043-.52-1.294.242-.757.681-2.145.385-3.327-.347-1.387-2.229-1.879-3.735-1.879-1.342 0-2.982.391-3.569 1.456-.704-.034-1.096.273-1.29.531-.635.838-.216 2.368.021 3.21-.329.249-.532.718-.532 1.303 0 .643.244 1.144.63 1.37.106 1.828.989 2.626 1.49 2.935v1.848l-1.176.431c-1.621.587-3.288 1.194-4.407 1.857-1.877-2.036-2.917-4.659-2.917-7.441 0-6.065 4.935-11 11-11s11 4.935 11 11c0 2.775-1.035 5.394-2.905 7.428z"/>
</svg>