
<svg contentScriptType="text/ecmascript" zoomAndPan="magnify"
     xmlns:xlink="http://www.w3.org/1999/xlink" contentStyleType="text/css"
     id="Layer_1" version="1.0" width="64" preserveAspectRatio="xMidYMid meet"
     viewBox="0 0 64 64" data-name="Layer 1" height="64"
     xmlns="http://www.w3.org/2000/svg">
    <defs>
        <style type="text/css" xml:space="preserve">.cls-1{fill:#FF9900;}</style>
    </defs><title>
        map_pins
    </title>
    <path fill="#FF9900"
          d="M31,60h0a1,1,0,0,1-.91-0.59L17.52,31.58A14.78,14.78,0,0,1,16,25a15,15,0,0,1,30,0,14.85,14.85,0,0,1-1.53,6.62L31.91,59.41A1,1,0,0,1,31,60Zm0-48A13,13,0,0,0,18,25a12.85,12.85,0,0,0,1.33,5.73L31,56.57,42.66,30.76A12.87,12.87,0,0,0,44,25,13,13,0,0,0,31,12Zm0,20a7,7,0,1,1,7-7A7,7,0,0,1,31,32Zm0-12a5,5,0,1,0,5,5A5,5,0,0,0,31,20Zm17.84,3.55a1,1,0,0,1-.46-1.89,3,3,0,0,0-2.09-5.58,1,1,0,0,1-.48-1.94,5,5,0,0,1,3.49,9.3A1,1,0,0,1,48.84,23.55ZM47,50h0a1,1,0,0,1-.92-0.6L42.41,41a1,1,0,0,1,1.83-.8L47,46.49,57.4,22.6A10.89,10.89,0,0,0,58,19a11,11,0,0,0-17.53-8.86,1,1,0,0,1-1.19-1.61A12.88,12.88,0,0,1,47,6,13,13,0,0,1,59.26,23.33L47.92,49.4A1,1,0,0,1,47,50ZM13.16,23.55a1,1,0,0,1-.46-0.11,5,5,0,0,1,3.49-9.3,1,1,0,1,1-.48,1.94,3,3,0,0,0-2.09,5.58A1,1,0,0,1,13.16,23.55ZM15,50a1,1,0,0,1-.92-0.6L2.77,23.4A13,13,0,0,1,22.71,8.53a1,1,0,1,1-1.19,1.61A11,11,0,0,0,4.63,22.67L15,46.49l2.76-6.33a1,1,0,1,1,1.83.8L15.92,49.4A1,1,0,0,1,15,50Z"
          id="map_pins" class="cls-1"/>
</svg>